<svg width="48" height="48" viewBox="0 0 48 48" fill="none" xmlns="http://www.w3.org/2000/svg">
<path fill-rule="evenodd" clip-rule="evenodd" d="M39.7536 9.38926C39.7533 9.37901 39.7529 9.36876 39.7522 9.3585C39.7492 9.31785 39.7452 9.27794 39.7371 9.23839C39.7371 9.23839 39.7371 9.23839 39.7371 9.23802C39.7291 9.19847 39.7177 9.15928 39.7049 9.1212C39.7016 9.11168 39.6983 9.10216 39.6947 9.09263C39.6811 9.05638 39.6657 9.02086 39.6482 8.98643C39.6471 8.9846 39.6463 8.98277 39.6452 8.98094C39.6262 8.94505 39.6042 8.91099 39.5804 8.87767C39.5746 8.86925 39.5683 8.86119 39.5621 8.85277C39.5368 8.81981 39.5105 8.78795 39.4808 8.75828L30.9972 0.274658C30.9675 0.244995 30.9357 0.218627 30.9027 0.193359C30.8943 0.187133 30.8858 0.180542 30.8774 0.174682C30.8441 0.150879 30.8104 0.128906 30.7749 0.110229C30.7723 0.108764 30.7698 0.108032 30.7676 0.106567C30.7339 0.0889891 30.6987 0.0739744 30.6632 0.0604247C30.6533 0.0567626 30.6438 0.0534666 30.6335 0.0501708C30.5954 0.0373535 30.557 0.026001 30.5171 0.0179443C30.5167 0.0179443 30.5163 0.0179443 30.5163 0.0179443C30.4772 0.0102539 30.4372 0.00585936 30.397 0.00292968C30.3867 0.00256348 30.3764 0.00183105 30.3662 0.00146484C30.3556 0.00109864 30.345 0 30.3343 0H9.09378C8.57596 0 8.15628 0.419677 8.15628 0.937498V41.0646C8.15628 41.5824 8.57596 42.0021 9.09378 42.0021H23.2083V47.0624C23.2083 47.4034 23.3936 47.7176 23.692 47.8827C23.9908 48.0479 24.3552 48.038 24.6442 47.8567L28.2147 45.6166L31.7853 47.8567C31.9372 47.9519 32.1105 47.9999 32.2837 47.9999C32.4397 47.9999 32.5961 47.9611 32.7374 47.8831C33.0359 47.7179 33.2212 47.4037 33.2212 47.0624V42.0021H38.8176C39.3354 42.0021 39.7551 41.5824 39.7551 41.0646V9.42112C39.7551 9.4105 39.754 9.39988 39.7536 9.38926ZM31.2718 3.20104L36.5544 8.48363H31.2718V3.20104ZM22.7457 28.9566C22.6798 28.7775 22.5725 28.4849 22.5699 28.3652C22.6432 28.2744 22.8973 28.1136 23.053 28.0154C23.387 27.8045 23.7656 27.565 24.0403 27.1907C24.3175 26.8124 24.4303 26.3756 24.5299 25.9903C24.5735 25.8218 24.6438 25.5498 24.7039 25.4469C24.7368 25.4399 24.806 25.43 24.936 25.43C25.0404 25.43 25.1572 25.4359 25.281 25.4421C25.4231 25.449 25.5696 25.4564 25.7227 25.4564C26.0603 25.4564 26.3328 25.4183 26.5799 25.3359C27.0117 25.1923 27.357 24.9144 27.6617 24.669C27.8302 24.5335 28.1122 24.3065 28.2103 24.2926C28.3176 24.3065 28.5992 24.5335 28.7677 24.669C29.0724 24.9144 29.4181 25.1923 29.8498 25.3359C30.097 25.4183 30.3691 25.4564 30.7071 25.4564C30.8598 25.4564 31.0067 25.449 31.1484 25.4421C31.2722 25.4359 31.389 25.43 31.4938 25.43C31.6238 25.43 31.6926 25.4395 31.7259 25.4469C31.786 25.5498 31.8563 25.8218 31.8995 25.9903C31.9991 26.3756 32.1123 26.8124 32.3895 27.1907C32.6638 27.565 33.0425 27.8041 33.3768 28.0154C33.5321 28.114 33.7862 28.2744 33.8595 28.3652C33.8569 28.4849 33.7496 28.7775 33.6841 28.9566C33.5445 29.3364 33.3867 29.767 33.3867 30.2442C33.3867 30.7214 33.5445 31.152 33.6837 31.5322C33.7496 31.7112 33.8569 32.0038 33.8595 32.1236C33.7862 32.2144 33.5321 32.3748 33.3768 32.4733C33.0425 32.6843 32.6638 32.9238 32.3895 33.298C32.1123 33.6763 31.9991 34.1132 31.8995 34.4985C31.8563 34.6666 31.7856 34.939 31.7259 35.0419C31.6926 35.0489 31.6238 35.0588 31.4938 35.0588C31.389 35.0588 31.2722 35.0529 31.1484 35.0467C31.0067 35.0397 30.8598 35.0324 30.7071 35.0324C30.3691 35.0324 30.097 35.0705 29.8498 35.1529C29.4181 35.2964 29.0724 35.5748 28.7677 35.8198C28.6018 35.9538 28.3249 36.1761 28.2147 36.1959C28.1045 36.1761 27.828 35.9538 27.6621 35.8198C27.357 35.5748 27.0117 35.2964 26.5799 35.1529C26.3328 35.0705 26.0603 35.0324 25.7227 35.0324C25.5699 35.0324 25.4231 35.0397 25.281 35.0467C25.1576 35.0529 25.0408 35.0588 24.936 35.0588C24.806 35.0588 24.7372 35.0489 24.7039 35.0419C24.6438 34.939 24.5735 34.6669 24.5299 34.4985C24.4307 34.1132 24.3175 33.6763 24.0403 33.298C23.766 32.9238 23.3873 32.6843 23.053 32.4733C22.8977 32.3752 22.6436 32.2144 22.5703 32.1236C22.5729 32.0042 22.6802 31.7112 22.7457 31.5322C22.8853 31.1524 23.0431 30.7217 23.0431 30.2446C23.0431 29.767 22.8849 29.3364 22.7457 28.9566ZM31.3462 45.3676L28.7131 43.7156C28.4084 43.5248 28.021 43.5248 27.7163 43.7156L25.0832 45.3676V36.9308C25.1829 36.9279 25.2806 36.9242 25.3755 36.9195C25.4996 36.9129 25.6168 36.907 25.7227 36.907C25.8889 36.907 25.96 36.9224 25.9874 36.9316C26.0991 36.9689 26.3137 37.1418 26.4862 37.2806C26.9238 37.6329 27.4684 38.0712 28.2147 38.0712C28.961 38.0712 29.5056 37.6329 29.9432 37.2806C30.1157 37.1418 30.3303 36.9689 30.4416 36.9319C30.4695 36.9228 30.5405 36.9074 30.7068 36.9074C30.8126 36.9074 30.9298 36.9133 31.0539 36.9195C31.1488 36.9242 31.2466 36.9283 31.3458 36.9308V45.3676H31.3462ZM33.2212 40.1271V36.1753C33.4999 35.7967 33.6163 35.3484 33.7148 34.9676C33.7665 34.7676 33.8371 34.4941 33.9016 34.4066C33.9657 34.3187 34.2041 34.1681 34.378 34.0583C34.8395 33.7668 35.4137 33.4039 35.6418 32.7176C35.8674 32.0405 35.6327 31.4007 35.4441 30.8865C35.3584 30.6533 35.2613 30.3885 35.2613 30.2442C35.2613 30.0999 35.3584 29.8355 35.4441 29.6022C35.6327 29.0881 35.8674 28.4479 35.6418 27.7708C35.4137 27.0849 34.8395 26.722 34.378 26.4305C34.2041 26.3206 33.9657 26.1698 33.9016 26.0826C33.8371 25.9947 33.7665 25.7211 33.7148 25.5212C33.5801 24.9993 33.4123 24.3497 32.8381 23.9285C32.3811 23.5938 31.8519 23.555 31.4934 23.555C31.3418 23.555 31.1953 23.5623 31.0539 23.5697C30.9298 23.5759 30.8126 23.5817 30.7071 23.5817C30.5405 23.5817 30.4695 23.5664 30.442 23.5572C30.3307 23.5202 30.1161 23.3474 29.9436 23.2082C29.5056 22.8563 28.961 22.4179 28.2147 22.4179C27.4687 22.4179 26.9238 22.8563 26.4862 23.2082C26.3137 23.347 26.0991 23.5202 25.9878 23.5572C25.9603 23.5664 25.8889 23.5817 25.7227 23.5817C25.6172 23.5817 25.4996 23.5759 25.3755 23.5693C25.2341 23.5623 25.088 23.555 24.936 23.555C24.5779 23.555 24.0487 23.5938 23.592 23.9285C23.0175 24.3497 22.8494 24.9993 22.7146 25.5212C22.663 25.7211 22.5923 25.9947 22.5282 26.0822C22.4637 26.1698 22.2253 26.3206 22.0514 26.4305C21.59 26.722 21.0161 27.0849 20.7876 27.7708C20.562 28.4483 20.7968 29.0881 20.9854 29.6022C21.071 29.8355 21.1681 30.0999 21.1681 30.2442C21.1681 30.3885 21.071 30.6533 20.9854 30.8865C20.7968 31.4007 20.562 32.0405 20.7876 32.718C21.0161 33.4039 21.5903 33.7668 22.0514 34.0583C22.2257 34.1681 22.4637 34.319 22.5282 34.4066C22.5923 34.4941 22.663 34.7676 22.7146 34.9676C22.8131 35.3484 22.9299 35.7971 23.2086 36.1753V40.1271H10.0313V1.875H29.3968V9.42112C29.3968 9.93895 29.8165 10.3586 30.3343 10.3586H37.8801V40.1271H33.2212Z" fill="black"/>
<path fill-rule="evenodd" clip-rule="evenodd" d="M13.6747 10.3586H25.7531C26.2705 10.3586 26.6906 9.93896 26.6906 9.42114C26.6906 8.90332 26.2705 8.48364 25.7531 8.48364H13.6747C13.1569 8.48364 12.7372 8.90332 12.7372 9.42114C12.7372 9.93896 13.1573 10.3586 13.6747 10.3586Z" fill="black"/>
<path fill-rule="evenodd" clip-rule="evenodd" d="M34.3415 13.2158H13.6747C13.1569 13.2158 12.7372 13.6355 12.7372 14.1533C12.7372 14.6711 13.1569 15.0908 13.6747 15.0908H34.3415C34.8593 15.0908 35.279 14.6711 35.279 14.1533C35.279 13.6355 34.8593 13.2158 34.3415 13.2158Z" fill="black"/>
<path fill-rule="evenodd" clip-rule="evenodd" d="M30.5915 17.948H13.6747C13.1569 17.948 12.7372 18.368 12.7372 18.8855C12.7372 19.4033 13.1569 19.823 13.6747 19.823H30.5915C31.1093 19.823 31.529 19.4033 31.529 18.8855C31.529 18.368 31.1093 17.948 30.5915 17.948Z" fill="black"/>
<path fill-rule="evenodd" clip-rule="evenodd" d="M34.3415 17.948C33.8251 17.948 33.404 18.3691 33.404 18.8855C33.404 19.4019 33.8251 19.823 34.3415 19.823C34.8582 19.823 35.279 19.4019 35.279 18.8855C35.279 18.3691 34.8582 17.948 34.3415 17.948Z" fill="black"/>
</svg>
