<svg width="64" height="64" viewBox="0 0 64 64" fill="none" xmlns="http://www.w3.org/2000/svg">
<g clip-path="url(#clip0_1_592)">
<path d="M58.3819 11.3743V7.62425H28.9194V0H12.987V7.62425H5.61813V11.3743H8.91325V60.25H5.61813V64H58.3817V60.25H55.0866V11.3743H58.3819ZM16.737 3.75H25.1694V7.62425H16.737V3.75ZM51.3366 48.0859H12.6634V23.5386H51.3367V48.0859H51.3366ZM12.6634 60.25V51.8359H51.3367V60.25H12.6634ZM51.3366 19.7886H12.6634V11.3743H51.3367V19.7886H51.3366Z" fill="white"/>
<path d="M32 43.7955C35.6031 43.7955 38.5345 40.8641 38.5345 37.261C38.5345 33.1816 33.7731 28.9237 33.2303 28.4515L32 27.3817L30.7696 28.4516C30.2267 28.9237 25.4654 33.1817 25.4654 37.2611C25.4655 40.8641 28.3969 43.7955 32 43.7955V43.7955ZM31.9953 32.4868C32.272 32.783 32.5736 33.123 32.8758 33.4941C34.0889 34.9841 34.7846 36.357 34.7846 37.2611C34.7846 38.7965 33.5355 40.0456 32.0001 40.0456C30.4648 40.0456 29.2156 38.7965 29.2156 37.2611C29.2155 35.9521 30.5983 33.988 31.9953 32.4868V32.4868Z" fill="white"/>
</g>
<defs>
<clipPath id="clip0_1_592">
<rect width="64" height="64" fill="white"/>
</clipPath>
</defs>
</svg>
